<svg xmlns="http://www.w3.org/2000/svg" xmlns:xlink="http://www.w3.org/1999/xlink" width="246" zoomAndPan="magnify" viewBox="0 0 184.5 68.999997" height="92" preserveAspectRatio="xMidYMid meet" version="1.0"><defs><g/><clipPath id="27992b8ee4"><path d="M 1.585938 18.957031 L 23.753906 18.957031 L 23.753906 46.6875 L 1.585938 46.6875 Z M 1.585938 18.957031 " clip-rule="nonzero"/></clipPath></defs><g clip-path="url(#27992b8ee4)"><path fill="#7971ea" d="M 1.585938 18.957031 L 23.753906 18.957031 L 23.753906 46.667969 L 1.585938 46.667969 Z M 1.585938 18.957031 " fill-opacity="1" fill-rule="nonzero"/></g><g fill="#ffffff" fill-opacity="1"><g transform="translate(4.022574, 31.086024)"><g><path d="M 4.28125 -2.015625 L 4.28125 -7.796875 C 4.269531 -8.203125 4.191406 -8.554688 4.046875 -8.859375 C 3.984375 -8.992188 3.90625 -9.125 3.8125 -9.25 C 3.71875 -9.375 3.601562 -9.488281 3.46875 -9.59375 C 3.332031 -9.6875 3.171875 -9.765625 2.984375 -9.828125 C 2.804688 -9.890625 2.597656 -9.921875 2.359375 -9.921875 C 2.117188 -9.921875 1.90625 -9.890625 1.71875 -9.828125 C 1.53125 -9.765625 1.375 -9.6875 1.25 -9.59375 C 1.113281 -9.488281 1 -9.375 0.90625 -9.25 C 0.820312 -9.125 0.75 -8.992188 0.6875 -8.859375 C 0.539062 -8.554688 0.457031 -8.203125 0.4375 -7.796875 L 0.4375 -2.015625 C 0.457031 -1.609375 0.539062 -1.253906 0.6875 -0.953125 C 0.75 -0.816406 0.820312 -0.6875 0.90625 -0.5625 C 1 -0.4375 1.113281 -0.328125 1.25 -0.234375 C 1.519531 -0.00390625 1.890625 0.109375 2.359375 0.109375 C 2.828125 0.109375 3.195312 -0.00390625 3.46875 -0.234375 C 3.601562 -0.328125 3.71875 -0.4375 3.8125 -0.5625 C 3.90625 -0.6875 3.984375 -0.816406 4.046875 -0.953125 C 4.191406 -1.253906 4.269531 -1.609375 4.28125 -2.015625 Z M 2.84375 -7.796875 L 2.84375 -2.015625 C 2.84375 -1.859375 2.828125 -1.738281 2.796875 -1.65625 C 2.765625 -1.5625 2.710938 -1.476562 2.640625 -1.40625 C 2.578125 -1.332031 2.484375 -1.296875 2.359375 -1.296875 C 2.242188 -1.296875 2.148438 -1.332031 2.078125 -1.40625 C 1.953125 -1.550781 1.890625 -1.753906 1.890625 -2.015625 L 1.890625 -7.796875 C 1.890625 -7.941406 1.90625 -8.0625 1.9375 -8.15625 C 1.96875 -8.25 2.015625 -8.332031 2.078125 -8.40625 C 2.140625 -8.476562 2.234375 -8.515625 2.359375 -8.515625 C 2.484375 -8.515625 2.582031 -8.484375 2.65625 -8.421875 C 2.78125 -8.265625 2.84375 -8.054688 2.84375 -7.796875 Z M 2.84375 -7.796875 "/></g></g></g><g fill="#ffffff" fill-opacity="1"><g transform="translate(8.751447, 31.086024)"><g><path d="M 4.28125 -2.015625 L 4.28125 -7.796875 C 4.269531 -8.203125 4.191406 -8.554688 4.046875 -8.859375 C 3.984375 -8.992188 3.90625 -9.125 3.8125 -9.25 C 3.71875 -9.375 3.601562 -9.488281 3.46875 -9.59375 C 3.332031 -9.6875 3.171875 -9.765625 2.984375 -9.828125 C 2.804688 -9.890625 2.597656 -9.921875 2.359375 -9.921875 C 2.117188 -9.921875 1.90625 -9.890625 1.71875 -9.828125 C 1.53125 -9.765625 1.375 -9.6875 1.25 -9.59375 C 1.113281 -9.488281 1 -9.375 0.90625 -9.25 C 0.820312 -9.125 0.75 -8.992188 0.6875 -8.859375 C 0.539062 -8.554688 0.457031 -8.203125 0.4375 -7.796875 L 0.4375 -2.015625 C 0.457031 -1.609375 0.539062 -1.253906 0.6875 -0.953125 C 0.75 -0.816406 0.820312 -0.6875 0.90625 -0.5625 C 1 -0.4375 1.113281 -0.328125 1.25 -0.234375 C 1.519531 -0.00390625 1.890625 0.109375 2.359375 0.109375 C 2.828125 0.109375 3.195312 -0.00390625 3.46875 -0.234375 C 3.601562 -0.328125 3.71875 -0.4375 3.8125 -0.5625 C 3.90625 -0.6875 3.984375 -0.816406 4.046875 -0.953125 C 4.191406 -1.253906 4.269531 -1.609375 4.28125 -2.015625 Z M 2.84375 -7.796875 L 2.84375 -2.015625 C 2.84375 -1.859375 2.828125 -1.738281 2.796875 -1.65625 C 2.765625 -1.5625 2.710938 -1.476562 2.640625 -1.40625 C 2.578125 -1.332031 2.484375 -1.296875 2.359375 -1.296875 C 2.242188 -1.296875 2.148438 -1.332031 2.078125 -1.40625 C 1.953125 -1.550781 1.890625 -1.753906 1.890625 -2.015625 L 1.890625 -7.796875 C 1.890625 -7.941406 1.90625 -8.0625 1.9375 -8.15625 C 1.96875 -8.25 2.015625 -8.332031 2.078125 -8.40625 C 2.140625 -8.476562 2.234375 -8.515625 2.359375 -8.515625 C 2.484375 -8.515625 2.582031 -8.484375 2.65625 -8.421875 C 2.78125 -8.265625 2.84375 -8.054688 2.84375 -7.796875 Z M 2.84375 -7.796875 "/></g></g></g><g fill="#ffffff" fill-opacity="1"><g transform="translate(13.48032, 31.086024)"><g><path d="M 0.15625 -7.6875 L 1.125 -7.6875 L 1.125 0 L 2.5625 0 L 2.5625 -9.8125 L 1.703125 -9.8125 C 1.609375 -9.625 1.5 -9.457031 1.375 -9.3125 C 1.25 -9.175781 1.085938 -9.039062 0.890625 -8.90625 C 0.703125 -8.769531 0.457031 -8.671875 0.15625 -8.609375 Z M 0.15625 -7.6875 "/></g></g></g><g fill="#ffffff" fill-opacity="1"><g transform="translate(16.579473, 31.086024)"><g><path d="M 4.28125 -2.015625 L 4.28125 -7.796875 C 4.269531 -8.203125 4.191406 -8.554688 4.046875 -8.859375 C 3.984375 -8.992188 3.90625 -9.125 3.8125 -9.25 C 3.71875 -9.375 3.601562 -9.488281 3.46875 -9.59375 C 3.332031 -9.6875 3.171875 -9.765625 2.984375 -9.828125 C 2.804688 -9.890625 2.597656 -9.921875 2.359375 -9.921875 C 2.117188 -9.921875 1.90625 -9.890625 1.71875 -9.828125 C 1.53125 -9.765625 1.375 -9.6875 1.25 -9.59375 C 1.113281 -9.488281 1 -9.375 0.90625 -9.25 C 0.820312 -9.125 0.75 -8.992188 0.6875 -8.859375 C 0.539062 -8.554688 0.457031 -8.203125 0.4375 -7.796875 L 0.4375 -2.015625 C 0.457031 -1.609375 0.539062 -1.253906 0.6875 -0.953125 C 0.75 -0.816406 0.820312 -0.6875 0.90625 -0.5625 C 1 -0.4375 1.113281 -0.328125 1.25 -0.234375 C 1.519531 -0.00390625 1.890625 0.109375 2.359375 0.109375 C 2.828125 0.109375 3.195312 -0.00390625 3.46875 -0.234375 C 3.601562 -0.328125 3.71875 -0.4375 3.8125 -0.5625 C 3.90625 -0.6875 3.984375 -0.816406 4.046875 -0.953125 C 4.191406 -1.253906 4.269531 -1.609375 4.28125 -2.015625 Z M 2.84375 -7.796875 L 2.84375 -2.015625 C 2.84375 -1.859375 2.828125 -1.738281 2.796875 -1.65625 C 2.765625 -1.5625 2.710938 -1.476562 2.640625 -1.40625 C 2.578125 -1.332031 2.484375 -1.296875 2.359375 -1.296875 C 2.242188 -1.296875 2.148438 -1.332031 2.078125 -1.40625 C 1.953125 -1.550781 1.890625 -1.753906 1.890625 -2.015625 L 1.890625 -7.796875 C 1.890625 -7.941406 1.90625 -8.0625 1.9375 -8.15625 C 1.96875 -8.25 2.015625 -8.332031 2.078125 -8.40625 C 2.140625 -8.476562 2.234375 -8.515625 2.359375 -8.515625 C 2.484375 -8.515625 2.582031 -8.484375 2.65625 -8.421875 C 2.78125 -8.265625 2.84375 -8.054688 2.84375 -7.796875 Z M 2.84375 -7.796875 "/></g></g></g><g fill="#ffffff" fill-opacity="1"><g transform="translate(4.022574, 43.816794)"><g><path d="M 4.28125 -2.015625 L 4.28125 -7.796875 C 4.269531 -8.203125 4.191406 -8.554688 4.046875 -8.859375 C 3.984375 -8.992188 3.90625 -9.125 3.8125 -9.25 C 3.71875 -9.375 3.601562 -9.488281 3.46875 -9.59375 C 3.332031 -9.6875 3.171875 -9.765625 2.984375 -9.828125 C 2.804688 -9.890625 2.597656 -9.921875 2.359375 -9.921875 C 2.117188 -9.921875 1.90625 -9.890625 1.71875 -9.828125 C 1.53125 -9.765625 1.375 -9.6875 1.25 -9.59375 C 1.113281 -9.488281 1 -9.375 0.90625 -9.25 C 0.820312 -9.125 0.75 -8.992188 0.6875 -8.859375 C 0.539062 -8.554688 0.457031 -8.203125 0.4375 -7.796875 L 0.4375 -2.015625 C 0.457031 -1.609375 0.539062 -1.253906 0.6875 -0.953125 C 0.75 -0.816406 0.820312 -0.6875 0.90625 -0.5625 C 1 -0.4375 1.113281 -0.328125 1.25 -0.234375 C 1.519531 -0.00390625 1.890625 0.109375 2.359375 0.109375 C 2.828125 0.109375 3.195312 -0.00390625 3.46875 -0.234375 C 3.601562 -0.328125 3.71875 -0.4375 3.8125 -0.5625 C 3.90625 -0.6875 3.984375 -0.816406 4.046875 -0.953125 C 4.191406 -1.253906 4.269531 -1.609375 4.28125 -2.015625 Z M 2.84375 -7.796875 L 2.84375 -2.015625 C 2.84375 -1.859375 2.828125 -1.738281 2.796875 -1.65625 C 2.765625 -1.5625 2.710938 -1.476562 2.640625 -1.40625 C 2.578125 -1.332031 2.484375 -1.296875 2.359375 -1.296875 C 2.242188 -1.296875 2.148438 -1.332031 2.078125 -1.40625 C 1.953125 -1.550781 1.890625 -1.753906 1.890625 -2.015625 L 1.890625 -7.796875 C 1.890625 -7.941406 1.90625 -8.0625 1.9375 -8.15625 C 1.96875 -8.25 2.015625 -8.332031 2.078125 -8.40625 C 2.140625 -8.476562 2.234375 -8.515625 2.359375 -8.515625 C 2.484375 -8.515625 2.582031 -8.484375 2.65625 -8.421875 C 2.78125 -8.265625 2.84375 -8.054688 2.84375 -7.796875 Z M 2.84375 -7.796875 "/></g></g></g><g fill="#ffffff" fill-opacity="1"><g transform="translate(8.751447, 43.816794)"><g><path d="M 0.15625 -7.6875 L 1.125 -7.6875 L 1.125 0 L 2.5625 0 L 2.5625 -9.8125 L 1.703125 -9.8125 C 1.609375 -9.625 1.5 -9.457031 1.375 -9.3125 C 1.25 -9.175781 1.085938 -9.039062 0.890625 -8.90625 C 0.703125 -8.769531 0.457031 -8.671875 0.15625 -8.609375 Z M 0.15625 -7.6875 "/></g></g></g><g fill="#ffffff" fill-opacity="1"><g transform="translate(11.8506, 43.816794)"><g><path d="M 4.28125 -2.015625 L 4.28125 -7.796875 C 4.269531 -8.203125 4.191406 -8.554688 4.046875 -8.859375 C 3.984375 -8.992188 3.90625 -9.125 3.8125 -9.25 C 3.71875 -9.375 3.601562 -9.488281 3.46875 -9.59375 C 3.332031 -9.6875 3.171875 -9.765625 2.984375 -9.828125 C 2.804688 -9.890625 2.597656 -9.921875 2.359375 -9.921875 C 2.117188 -9.921875 1.90625 -9.890625 1.71875 -9.828125 C 1.53125 -9.765625 1.375 -9.6875 1.25 -9.59375 C 1.113281 -9.488281 1 -9.375 0.90625 -9.25 C 0.820312 -9.125 0.75 -8.992188 0.6875 -8.859375 C 0.539062 -8.554688 0.457031 -8.203125 0.4375 -7.796875 L 0.4375 -2.015625 C 0.457031 -1.609375 0.539062 -1.253906 0.6875 -0.953125 C 0.75 -0.816406 0.820312 -0.6875 0.90625 -0.5625 C 1 -0.4375 1.113281 -0.328125 1.25 -0.234375 C 1.519531 -0.00390625 1.890625 0.109375 2.359375 0.109375 C 2.828125 0.109375 3.195312 -0.00390625 3.46875 -0.234375 C 3.601562 -0.328125 3.71875 -0.4375 3.8125 -0.5625 C 3.90625 -0.6875 3.984375 -0.816406 4.046875 -0.953125 C 4.191406 -1.253906 4.269531 -1.609375 4.28125 -2.015625 Z M 2.84375 -7.796875 L 2.84375 -2.015625 C 2.84375 -1.859375 2.828125 -1.738281 2.796875 -1.65625 C 2.765625 -1.5625 2.710938 -1.476562 2.640625 -1.40625 C 2.578125 -1.332031 2.484375 -1.296875 2.359375 -1.296875 C 2.242188 -1.296875 2.148438 -1.332031 2.078125 -1.40625 C 1.953125 -1.550781 1.890625 -1.753906 1.890625 -2.015625 L 1.890625 -7.796875 C 1.890625 -7.941406 1.90625 -8.0625 1.9375 -8.15625 C 1.96875 -8.25 2.015625 -8.332031 2.078125 -8.40625 C 2.140625 -8.476562 2.234375 -8.515625 2.359375 -8.515625 C 2.484375 -8.515625 2.582031 -8.484375 2.65625 -8.421875 C 2.78125 -8.265625 2.84375 -8.054688 2.84375 -7.796875 Z M 2.84375 -7.796875 "/></g></g></g><g fill="#ffffff" fill-opacity="1"><g transform="translate(16.579473, 43.816794)"><g><path d="M 4.28125 -2.015625 L 4.28125 -7.796875 C 4.269531 -8.203125 4.191406 -8.554688 4.046875 -8.859375 C 3.984375 -8.992188 3.90625 -9.125 3.8125 -9.25 C 3.71875 -9.375 3.601562 -9.488281 3.46875 -9.59375 C 3.332031 -9.6875 3.171875 -9.765625 2.984375 -9.828125 C 2.804688 -9.890625 2.597656 -9.921875 2.359375 -9.921875 C 2.117188 -9.921875 1.90625 -9.890625 1.71875 -9.828125 C 1.53125 -9.765625 1.375 -9.6875 1.25 -9.59375 C 1.113281 -9.488281 1 -9.375 0.90625 -9.25 C 0.820312 -9.125 0.75 -8.992188 0.6875 -8.859375 C 0.539062 -8.554688 0.457031 -8.203125 0.4375 -7.796875 L 0.4375 -2.015625 C 0.457031 -1.609375 0.539062 -1.253906 0.6875 -0.953125 C 0.75 -0.816406 0.820312 -0.6875 0.90625 -0.5625 C 1 -0.4375 1.113281 -0.328125 1.25 -0.234375 C 1.519531 -0.00390625 1.890625 0.109375 2.359375 0.109375 C 2.828125 0.109375 3.195312 -0.00390625 3.46875 -0.234375 C 3.601562 -0.328125 3.71875 -0.4375 3.8125 -0.5625 C 3.90625 -0.6875 3.984375 -0.816406 4.046875 -0.953125 C 4.191406 -1.253906 4.269531 -1.609375 4.28125 -2.015625 Z M 2.84375 -7.796875 L 2.84375 -2.015625 C 2.84375 -1.859375 2.828125 -1.738281 2.796875 -1.65625 C 2.765625 -1.5625 2.710938 -1.476562 2.640625 -1.40625 C 2.578125 -1.332031 2.484375 -1.296875 2.359375 -1.296875 C 2.242188 -1.296875 2.148438 -1.332031 2.078125 -1.40625 C 1.953125 -1.550781 1.890625 -1.753906 1.890625 -2.015625 L 1.890625 -7.796875 C 1.890625 -7.941406 1.90625 -8.0625 1.9375 -8.15625 C 1.96875 -8.25 2.015625 -8.332031 2.078125 -8.40625 C 2.140625 -8.476562 2.234375 -8.515625 2.359375 -8.515625 C 2.484375 -8.515625 2.582031 -8.484375 2.65625 -8.421875 C 2.78125 -8.265625 2.84375 -8.054688 2.84375 -7.796875 Z M 2.84375 -7.796875 "/></g></g></g><g fill="#7971ea" fill-opacity="1"><g transform="translate(30.486466, 46.578294)"><g><path d="M 1.53125 0 L 4.78125 0 C 6.6875 0 8.1875 -0.210938 9.28125 -0.640625 C 10.375 -1.078125 11.203125 -1.832031 11.765625 -2.90625 C 12.296875 -3.976562 12.628906 -5.410156 12.765625 -7.203125 C 12.910156 -8.992188 12.984375 -11.265625 12.984375 -14.015625 C 12.984375 -16.765625 12.910156 -19.046875 12.765625 -20.859375 C 12.628906 -22.671875 12.296875 -24.109375 11.765625 -25.171875 C 11.203125 -26.242188 10.375 -26.992188 9.28125 -27.421875 C 8.1875 -27.859375 6.6875 -28.078125 4.78125 -28.078125 L 1.53125 -28.078125 Z M 5.65625 -4.125 L 5.65625 -23.953125 C 6.363281 -23.953125 6.925781 -23.867188 7.34375 -23.703125 C 7.769531 -23.535156 8.085938 -23.125 8.296875 -22.46875 C 8.390625 -22.132812 8.46875 -21.71875 8.53125 -21.21875 C 8.601562 -20.726562 8.648438 -20.148438 8.671875 -19.484375 C 8.691406 -18.816406 8.703125 -18.03125 8.703125 -17.125 C 8.703125 -16.226562 8.703125 -15.207031 8.703125 -14.0625 C 8.703125 -12.914062 8.703125 -11.890625 8.703125 -10.984375 C 8.703125 -10.078125 8.691406 -9.296875 8.671875 -8.640625 C 8.648438 -7.972656 8.601562 -7.390625 8.53125 -6.890625 C 8.46875 -6.398438 8.390625 -5.988281 8.296875 -5.65625 C 8.085938 -4.96875 7.769531 -4.539062 7.34375 -4.375 C 6.925781 -4.207031 6.363281 -4.125 5.65625 -4.125 Z M 5.65625 -4.125 "/></g></g></g><g fill="#7971ea" fill-opacity="1"><g transform="translate(44.69751, 46.578294)"><g><path d="M 1.53125 -28.078125 L 1.53125 0 L 10.96875 0 L 10.96875 -4.234375 L 5.65625 -4.234375 L 5.65625 -11.953125 L 9.46875 -11.953125 L 9.46875 -16.46875 L 5.65625 -16.46875 L 5.65625 -23.84375 L 10.96875 -23.84375 L 10.96875 -28.078125 Z M 1.53125 -28.078125 "/></g></g></g><g fill="#7971ea" fill-opacity="1"><g transform="translate(56.425438, 46.578294)"><g><path d="M 9.015625 -28.078125 L 6.953125 -12.640625 L 6.796875 -11.46875 L 6.578125 -11.46875 L 6.421875 -12.640625 L 4.359375 -28.078125 L 0.34375 -28.078125 L 4.625 0 L 8.75 0 L 13.03125 -28.078125 Z M 9.015625 -28.078125 "/></g></g></g><g fill="#7971ea" fill-opacity="1"><g transform="translate(69.796046, 46.578294)"><g><path d="M 9.015625 -28.078125 L 6.953125 -12.640625 L 6.796875 -11.46875 L 6.578125 -11.46875 L 6.421875 -12.640625 L 4.359375 -28.078125 L 0.34375 -28.078125 L 4.625 0 L 8.75 0 L 13.03125 -28.078125 Z M 9.015625 -28.078125 "/></g></g></g><g fill="#7971ea" fill-opacity="1"><g transform="translate(83.166655, 46.578294)"><g><path d="M 1.53125 -28.078125 L 1.53125 0 L 10.96875 0 L 10.96875 -4.234375 L 5.65625 -4.234375 L 5.65625 -11.953125 L 9.46875 -11.953125 L 9.46875 -16.46875 L 5.65625 -16.46875 L 5.65625 -23.84375 L 10.96875 -23.84375 L 10.96875 -28.078125 Z M 1.53125 -28.078125 "/></g></g></g><g fill="#7971ea" fill-opacity="1"><g transform="translate(94.894583, 46.578294)"><g><path d="M 1.53125 -28.078125 L 1.53125 0 L 11.109375 0 L 11.109375 -3.828125 L 5.65625 -3.828125 L 5.65625 -28.078125 Z M 1.53125 -28.078125 "/></g></g></g><g fill="#7971ea" fill-opacity="1"><g transform="translate(106.1641, 46.578294)"><g><path d="M 12.265625 -5.765625 L 12.265625 -22.3125 C 12.210938 -23.457031 11.984375 -24.460938 11.578125 -25.328125 C 11.398438 -25.710938 11.175781 -26.085938 10.90625 -26.453125 C 10.632812 -26.828125 10.3125 -27.15625 9.9375 -27.4375 C 9.550781 -27.707031 9.097656 -27.929688 8.578125 -28.109375 C 8.054688 -28.296875 7.453125 -28.390625 6.765625 -28.390625 C 6.078125 -28.390625 5.460938 -28.296875 4.921875 -28.109375 C 4.390625 -27.929688 3.929688 -27.707031 3.546875 -27.4375 C 3.171875 -27.15625 2.851562 -26.828125 2.59375 -26.453125 C 2.34375 -26.085938 2.128906 -25.710938 1.953125 -25.328125 C 1.546875 -24.460938 1.316406 -23.457031 1.265625 -22.3125 L 1.265625 -5.765625 C 1.316406 -4.597656 1.546875 -3.582031 1.953125 -2.71875 C 2.128906 -2.332031 2.34375 -1.957031 2.59375 -1.59375 C 2.851562 -1.238281 3.171875 -0.925781 3.546875 -0.65625 C 4.335938 -0.0078125 5.410156 0.3125 6.765625 0.3125 C 8.085938 0.3125 9.144531 -0.0078125 9.9375 -0.65625 C 10.3125 -0.925781 10.632812 -1.238281 10.90625 -1.59375 C 11.175781 -1.957031 11.398438 -2.332031 11.578125 -2.71875 C 11.984375 -3.582031 12.210938 -4.597656 12.265625 -5.765625 Z M 8.140625 -22.3125 L 8.140625 -5.765625 C 8.140625 -5.304688 8.085938 -4.960938 7.984375 -4.734375 C 7.910156 -4.453125 7.773438 -4.207031 7.578125 -4 C 7.390625 -3.800781 7.117188 -3.703125 6.765625 -3.703125 C 6.429688 -3.703125 6.160156 -3.804688 5.953125 -4.015625 C 5.578125 -4.441406 5.390625 -5.023438 5.390625 -5.765625 L 5.390625 -22.3125 C 5.390625 -22.71875 5.441406 -23.0625 5.546875 -23.34375 C 5.617188 -23.59375 5.75 -23.828125 5.9375 -24.046875 C 6.132812 -24.265625 6.410156 -24.375 6.765625 -24.375 C 7.117188 -24.375 7.398438 -24.269531 7.609375 -24.0625 C 7.960938 -23.632812 8.140625 -23.050781 8.140625 -22.3125 Z M 8.140625 -22.3125 "/></g></g></g><g fill="#7971ea" fill-opacity="1"><g transform="translate(119.687516, 46.578294)"><g><path d="M 1.53125 -28.078125 L 1.53125 0 L 5.65625 0 L 5.65625 -11.234375 C 6.539062 -11.234375 7.414062 -11.378906 8.28125 -11.671875 C 9.15625 -11.960938 9.9375 -12.425781 10.625 -13.0625 C 11.3125 -13.726562 11.863281 -14.59375 12.28125 -15.65625 C 12.695312 -16.726562 12.90625 -18.066406 12.90625 -19.671875 C 12.90625 -21.273438 12.695312 -22.625 12.28125 -23.71875 C 11.863281 -24.8125 11.3125 -25.679688 10.625 -26.328125 C 9.9375 -26.984375 9.15625 -27.4375 8.28125 -27.6875 C 7.414062 -27.945312 6.539062 -28.078125 5.65625 -28.078125 Z M 5.65625 -15.4375 L 5.65625 -23.875 C 6.90625 -23.875 7.742188 -23.546875 8.171875 -22.890625 C 8.398438 -22.554688 8.550781 -22.109375 8.625 -21.546875 C 8.707031 -20.984375 8.75 -20.304688 8.75 -19.515625 C 8.75 -18.734375 8.707031 -18.078125 8.625 -17.546875 C 8.550781 -17.023438 8.398438 -16.613281 8.171875 -16.3125 C 7.765625 -15.726562 6.925781 -15.4375 5.65625 -15.4375 Z M 5.65625 -15.4375 "/></g></g></g><g fill="#7971ea" fill-opacity="1"><g transform="translate(133.134534, 46.578294)"><g><path d="M 1.53125 -28.078125 L 1.53125 0 L 5.65625 0 L 5.65625 -11.234375 C 6.539062 -11.234375 7.414062 -11.378906 8.28125 -11.671875 C 9.15625 -11.960938 9.9375 -12.425781 10.625 -13.0625 C 11.3125 -13.726562 11.863281 -14.59375 12.28125 -15.65625 C 12.695312 -16.726562 12.90625 -18.066406 12.90625 -19.671875 C 12.90625 -21.273438 12.695312 -22.625 12.28125 -23.71875 C 11.863281 -24.8125 11.3125 -25.679688 10.625 -26.328125 C 9.9375 -26.984375 9.15625 -27.4375 8.28125 -27.6875 C 7.414062 -27.945312 6.539062 -28.078125 5.65625 -28.078125 Z M 5.65625 -15.4375 L 5.65625 -23.875 C 6.90625 -23.875 7.742188 -23.546875 8.171875 -22.890625 C 8.398438 -22.554688 8.550781 -22.109375 8.625 -21.546875 C 8.707031 -20.984375 8.75 -20.304688 8.75 -19.515625 C 8.75 -18.734375 8.707031 -18.078125 8.625 -17.546875 C 8.550781 -17.023438 8.398438 -16.613281 8.171875 -16.3125 C 7.765625 -15.726562 6.925781 -15.4375 5.65625 -15.4375 Z M 5.65625 -15.4375 "/></g></g></g><g fill="#7971ea" fill-opacity="1"><g transform="translate(146.581552, 46.578294)"><g><path d="M 1.53125 -28.078125 L 1.53125 0 L 10.96875 0 L 10.96875 -4.234375 L 5.65625 -4.234375 L 5.65625 -11.953125 L 9.46875 -11.953125 L 9.46875 -16.46875 L 5.65625 -16.46875 L 5.65625 -23.84375 L 10.96875 -23.84375 L 10.96875 -28.078125 Z M 1.53125 -28.078125 "/></g></g></g><g fill="#7971ea" fill-opacity="1"><g transform="translate(158.30948, 46.578294)"><g><path d="M 8.90625 0 L 13.03125 0 L 10.390625 -13.59375 C 11.179688 -14.132812 11.757812 -14.984375 12.125 -16.140625 C 12.5 -17.296875 12.6875 -18.578125 12.6875 -19.984375 C 12.6875 -22.628906 12.128906 -24.640625 11.015625 -26.015625 C 9.910156 -27.390625 8.125 -28.078125 5.65625 -28.078125 L 1.53125 -28.078125 L 1.53125 0 L 5.65625 0 L 5.65625 -11.84375 L 6.765625 -11.84375 Z M 5.65625 -15.65625 L 5.65625 -23.984375 C 5.9375 -23.984375 6.253906 -23.957031 6.609375 -23.90625 C 6.960938 -23.863281 7.296875 -23.703125 7.609375 -23.421875 C 7.910156 -23.160156 8.164062 -22.742188 8.375 -22.171875 C 8.59375 -21.597656 8.703125 -20.816406 8.703125 -19.828125 C 8.703125 -18.835938 8.59375 -18.066406 8.375 -17.515625 C 8.164062 -16.960938 7.910156 -16.550781 7.609375 -16.28125 C 7.296875 -16.019531 6.960938 -15.847656 6.609375 -15.765625 C 6.253906 -15.691406 5.9375 -15.65625 5.65625 -15.65625 Z M 5.65625 -15.65625 "/></g></g></g></svg>