<?xml version="1.0" encoding="UTF-8" standalone="no"?>
<svg
   viewBox="0 0 64 64"
   version="1.1"
   id="svg2"
   sodipodi:docname="linkedin.svg"
   inkscape:version="1.3.2 (091e20e, 2023-11-25)"
   xmlns:inkscape="http://www.inkscape.org/namespaces/inkscape"
   xmlns:sodipodi="http://sodipodi.sourceforge.net/DTD/sodipodi-0.dtd"
   xmlns="http://www.w3.org/2000/svg"
   xmlns:svg="http://www.w3.org/2000/svg">
  <sodipodi:namedview
     id="namedview2"
     pagecolor="#ffffff"
     bordercolor="#000000"
     borderopacity="0.25"
     inkscape:showpageshadow="2"
     inkscape:pageopacity="0.0"
     inkscape:pagecheckerboard="0"
     inkscape:deskcolor="#d1d1d1"
     inkscape:zoom="7.46875"
     inkscape:cx="32"
     inkscape:cy="31.866109"
     inkscape:window-width="1366"
     inkscape:window-height="684"
     inkscape:window-x="0"
     inkscape:window-y="27"
     inkscape:window-maximized="1"
     inkscape:current-layer="svg2" />
  <defs
     id="defs1">
    <style
       id="style1">.cls-1{fill:#007fb5;}.cls-2{fill:#fff;}</style>
  </defs>
  <title
     id="title1" />
  <g
     data-name="14-linkedin"
     id="_14-linkedin"
     transform="translate(-1.8717067,-2.3805856)">
    <rect
       class="cls-1"
       height="59.566391"
       rx="10.470721"
       ry="10.424118"
       width="59.832695"
       id="rect1"
       style="fill:#999999;stroke-width:0.932803;fill-opacity:1"
       x="4.167305"
       y="4.43361" />
    <rect
       class="cls-2"
       height="27.206802"
       width="8.2211113"
       x="11.180716"
       y="25.726606"
       id="rect2"
       style="stroke-width:0.870069" />
    <path
       class="cls-2"
       d="m 46.878367,25.726606 c -6.063411,-2.112019 -10.451646,1.463447 -12.327115,3.459056 v -3.459056 h -8.193799 v 27.206802 h 8.193799 V 38.581654 a 7.6930669,7.0262064 0 0 1 2.030241,-4.922502 4.3245051,3.9496427 0 0 1 3.10454,-1.388611 4.9344879,4.5067501 0 0 1 3.587063,1.322091 5.5808876,5.0971178 0 0 1 1.547717,3.617041 v 15.723735 h 9.249889 V 36.087143 c 0,0 1.028777,-7.550054 -7.192335,-10.360537 z"
       id="path2"
       style="stroke-width:0.870069" />
    <ellipse
       class="cls-2"
       cx="15.07094"
       cy="16.769268"
       id="circle2"
       rx="4.8643579"
       ry="4.8232379"
       style="stroke-width:0.858822" />
  </g>
</svg>
