<?xml version="1.0" encoding="UTF-8" standalone="no"?>
<svg
   enable-background="new 0 0 24 24"
   id="Layer_1"
   version="1.1"
   viewBox="0 0 24 24"
   xml:space="preserve"
   sodipodi:docname="instagram.svg"
   inkscape:version="1.3.2 (091e20e, 2023-11-25)"
   xmlns:inkscape="http://www.inkscape.org/namespaces/inkscape"
   xmlns:sodipodi="http://sodipodi.sourceforge.net/DTD/sodipodi-0.dtd"
   xmlns="http://www.w3.org/2000/svg"
   xmlns:svg="http://www.w3.org/2000/svg"><defs
     id="defs24" /><sodipodi:namedview
     id="namedview24"
     pagecolor="#ffffff"
     bordercolor="#000000"
     borderopacity="0.25"
     inkscape:showpageshadow="2"
     inkscape:pageopacity="0.0"
     inkscape:pagecheckerboard="0"
     inkscape:deskcolor="#d1d1d1"
     inkscape:zoom="19.916667"
     inkscape:cx="12.050209"
     inkscape:cy="12"
     inkscape:window-width="1366"
     inkscape:window-height="684"
     inkscape:window-x="0"
     inkscape:window-y="27"
     inkscape:window-maximized="1"
     inkscape:current-layer="g9" /><g
     id="g9"><path
       d="M17,22H7c-2.7614236,0-5-2.2385769-5-5V7c0-2.7614236,2.2385764-5,5-5h10c2.7614231,0,5,2.2385764,5,5v10   C22,19.7614231,19.7614231,22,17,22z"
       fill="#FFFFFF"
       id="path1" /><radialGradient
       cx="2.4583333"
       cy="22.208334"
       gradientUnits="userSpaceOnUse"
       id="SVGID_1_"
       r="26.8152752"><stop
         offset="0"
         style="stop-color:#FFD35A"
         id="stop1" /><stop
         offset="0.2548544"
         style="stop-color:#F7964C"
         id="stop2" /><stop
         offset="0.5995145"
         style="stop-color:#F05B70"
         id="stop3" /><stop
         offset="0.7174556"
         style="stop-color:#BD6186"
         id="stop4" /><stop
         offset="0.8532288"
         style="stop-color:#85659B"
         id="stop5" /><stop
         offset="0.9509482"
         style="stop-color:#5C66A9"
         id="stop6" /><stop
         offset="1"
         style="stop-color:#4766B0"
         id="stop7" /></radialGradient><path
       d="M17.0219727,1H6.9780273C3.6816406,1,1,3.6816406,1,6.9780273v10.0439453   C1,20.3183594,3.6816406,23,6.9780273,23h10.0439453C20.3183594,23,23,20.3183594,23,17.0219727V6.9780273   C23,3.6816406,20.3183594,1,17.0219727,1z M21,17.0219727C21,19.215332,19.215332,21,17.0219727,21H6.9780273   C4.784668,21,3,19.215332,3,17.0219727V6.9780273C3,4.784668,4.784668,3,6.9780273,3h10.0439453   C19.215332,3,21,4.784668,21,6.9780273V17.0219727z M12,6c-3.3085938,0-6,2.6914063-6,6s2.6914063,6,6,6s6-2.6914063,6-6   S15.3085938,6,12,6z M12,16c-2.2055664,0-4-1.7944336-4-4s1.7944336-4,4-4s4,1.7944336,4,4S14.2055664,16,12,16z M18,5   c-0.5512695,0-1,0.4487305-1,1s0.4487305,1,1,1s1-0.4487305,1-1S18.5512695,5,18,5z"
       fill="url(#SVGID_1_)"
       id="path7"
       style="fill:#999999;fill-opacity:1" /><linearGradient
       gradientUnits="userSpaceOnUse"
       id="SVGID_2_"
       x1="0.5337821"
       x2="23.466217"
       y1="6.6532149"
       y2="17.3467846"><stop
         offset="0"
         style="stop-color:#FFFFFF;stop-opacity:0.2"
         id="stop8" /><stop
         offset="1"
         style="stop-color:#FFFFFF;stop-opacity:0"
         id="stop9" /></linearGradient><path
       d="M17.0219727,1H6.9780273C3.6816406,1,1,3.6816406,1,6.9780273v10.0439453   C1,20.3183594,3.6816406,23,6.9780273,23h10.0439453C20.3183594,23,23,20.3183594,23,17.0219727V6.9780273   C23,3.6816406,20.3183594,1,17.0219727,1z"
       fill="url(#SVGID_2_)"
       id="path9" /></g><g
     id="g10" /><g
     id="g11" /><g
     id="g12" /><g
     id="g13" /><g
     id="g14" /><g
     id="g15" /><g
     id="g16" /><g
     id="g17" /><g
     id="g18" /><g
     id="g19" /><g
     id="g20" /><g
     id="g21" /><g
     id="g22" /><g
     id="g23" /><g
     id="g24" /></svg>
