<?xml version="1.0" encoding="UTF-8" standalone="no"?>
<svg
   enable-background="new 0 0 100 100"
   viewBox="0 0 100 100"
   id="x"
   version="1.1"
   sodipodi:docname="twitter.svg"
   inkscape:version="1.3.2 (091e20e, 2023-11-25)"
   xmlns:inkscape="http://www.inkscape.org/namespaces/inkscape"
   xmlns:sodipodi="http://sodipodi.sourceforge.net/DTD/sodipodi-0.dtd"
   xmlns="http://www.w3.org/2000/svg"
   xmlns:svg="http://www.w3.org/2000/svg">
  <defs
     id="defs2" />
  <sodipodi:namedview
     id="namedview2"
     pagecolor="#ffffff"
     bordercolor="#000000"
     borderopacity="0.25"
     inkscape:showpageshadow="2"
     inkscape:pageopacity="0.0"
     inkscape:pagecheckerboard="0"
     inkscape:deskcolor="#d1d1d1"
     inkscape:zoom="4.78"
     inkscape:cx="50"
     inkscape:cy="49.790795"
     inkscape:window-width="1366"
     inkscape:window-height="684"
     inkscape:window-x="0"
     inkscape:window-y="27"
     inkscape:window-maximized="1"
     inkscape:current-layer="g2" />
  <g
     id="g2"
     transform="matrix(1.0815558,0,0,1.0395574,-4.4600572,-3.0848387)">
    <path
       d="M 69.7,8.7 H 30.4 C 18.7,8.7 9.1,18.2 9.1,30 v 41.2 c 0,11.7 9.5,21.3 21.3,21.3 H 69.8 C 81.5,92.5 91.1,83 91.1,71.2 V 29.9 C 91,18.2 81.5,8.7 69.7,8.7 Z m 7.1,69.6 H 61.4 c -0.1,0 -0.2,0 -0.2,-0.1 L 46.8,57.3 c 0,0 -0.1,0 -0.1,0 -5.8,6.7 -11.5,13.3 -17.1,19.8 -0.3,0.4 -0.7,0.7 -1,1 -0.1,0.1 -0.2,0.1 -0.3,0.1 h -4.2 c -0.1,0 -0.2,0 -0.1,-0.1 L 44.5,54.3 c 0.1,-0.1 0.1,-0.2 0,-0.3 L 24.1,24.3 c 0,0 0,-0.1 0,-0.1 h 15.5 c 0.1,0 0.1,0 0.2,0.1 L 53.4,44 c 0,0 0,0 0.1,0 L 70.4,24.3 c 0.1,-0.1 0.2,-0.1 0.3,-0.1 h 4.2 c 0.2,0 0.2,0.1 0.1,0.2 L 55.6,46.9 c -0.1,0.1 -0.1,0.2 0,0.3 l 21.3,31 c 0,0 0,0.1 -0.1,0.1 z"
       id="path1"
       style="fill:#999999;fill-opacity:1" />
    <path
       d="m 37.8,27.8 c 0,0 0,0 0,0 H 31.1 C 31,27.8 31,27.9 31,28 l 32.2,46.7 c 0,0 0,0 0.1,0 h 6.6 c 0.1,0 0.1,-0.1 0.1,-0.2 z"
       id="path2"
       style="fill:#999999;fill-opacity:1" />
  </g>
</svg>
